PathFileType	4	(X/Y/Z)	7_1_tpose_p0_0-183.trc
DataRate	CameraRate	NumFrames	NumMarkers	Units	OrigDataRate	OrigDataStartFrame	OrigNumFrames
59.0	59.0	6	27	m	59.0	23	184
Frame#	Time	RHip			RKnee			RAnkle			RBigToe			RSmallToe			RHeel			LHip			LKnee			LAnkle			LBigToe			LSmallToe			LHeel			Neck			Head			Nose			RShoulder			RElbow			RWrist			RThumb			RIndex			RPinky			LShoulder			LElbow			LWrist			LThumb			LIndex			LPinky			
		X1	Y1	Z1	X2	Y2	Z2	X3	Y3	Z3	X4	Y4	Z4	X5	Y5	Z5	X6	Y6	Z6	X7	Y7	Z7	X8	Y8	Z8	X9	Y9	Z9	X10	Y10	Z10	X11	Y11	Z11	X12	Y12	Z12	X13	Y13	Z13	X14	Y14	Z14	X15	Y15	Z15	X16	Y16	Z16	X17	Y17	Z17	X18	Y18	Z18	X19	Y19	Z19	X20	Y20	Z20	X21	Y21	Z21	X22	Y22	Z22	X23	Y23	Z23	X24	Y24	Z24	X25	Y25	Z25	X26	Y26	Z26	X27	Y27	Z27	
23	0.3898305084745763	0.3033792251613127	0.3073013865127545	1.1934353027972697	0.3103793754875831	0.2877940891872091	1.5959511206044399	0.2830454970122371	0.3115922683163984	2.01559496346117	0.2593605000079695	0.10590079411978523	2.003558380676233	0.33616002621254687	0.17654855210686576	2.047038421839011	0.2636632087322722	0.3523083080473722	2.100197954533351	0.09501398111200048	0.34429885662770154	1.217064646969197	0.10371546014611428	0.3128336869259814	1.5965939461079306	0.133648860682621	0.3363618107034366	2.040650956085275	0.11557389373394233	0.09603877323810607	2.0167050831962894	0.05535275304130775	0.156041927645512	2.0127359289720292	0.1450803085193552	0.3638836211417191	2.1011799804666595	0.19478301649565632	0.38135475144937453	0.600295784494804	0.21105748659186507	0.4033758821616155	0.36315654325570373	0.20125827353187595	0.29916797491908276	0.4854331612308073	0.36826053910295775	0.3806794671677256	0.6697937051696394	0.6222882557699219	0.33839447694453684	0.654955149927053	0.856559777258516	0.29340888614722466	0.6097858862989554	0.9894041445483103	0.22084132568410836	0.6289907422323638	1.022750201811072	0.2324936040872617	0.637729625019836	0.991571165171595	0.2947001688621742	0.6646567083408396	0.0318099971888589	0.39504475434242436	0.6691837967402273	-0.2230486807386947	0.4082178313763564	0.6655343502519575	-0.4797534990111235	0.41102231444606674	0.6244605888905601	-0.5736284802331693	0.3761527144300633	0.6514643957129014	-0.5915136145538968	0.38238440503413057	0.6203088653881982	-0.5820143740824002	0.41218541023351024	0.6338527107675592
24	0.4067796610169492	0.3040677689793368	0.307814959014648	1.1975196310011966	0.31035056998128485	0.2877782490037936	1.595826457447233	0.2828196827287996	0.3136258983688632	2.012505741706227	0.2579352656834661	0.10521771526969052	2.0094441610582208	0.3358353089735297	0.1757553119187004	2.047403243123413	0.2625360790060665	0.3517638200283646	2.0946488687258884	0.09509350716588484	0.3447445050262888	1.2169280918885839	0.10339238159765447	0.3151276878339494	1.591661712188252	0.13354503085840122	0.33641137950683087	2.040820652112828	0.11548280460641294	0.09689727135008025	2.0183134374337466	0.05535021741347372	0.15629353301931218	2.013098193641283	0.14596681631730912	0.3637520342807343	2.0971208392856107	0.19478005387490138	0.3814132175814616	0.6000444996337244	0.2110672205895486	0.4034564739820963	0.36326144542652505	0.1974951674633667	0.3105306519514546	0.487557582485236	0.36818192294669666	0.38085379519615625	0.6699556896019967	0.6223861808501243	0.3390584044695199	0.6552510935131041	0.8565725729606174	0.29359946054027114	0.6101149314074835	0.9754206604971195	0.20409094933200553	0.6221436483865536	1.0182746221480194	0.23144216907712015	0.6337011204719808	0.9948261247068919	0.29521750030484506	0.6649840351206542	0.031793140857412076	0.3951353677090568	0.669318434322895	-0.22510582596262252	0.42212258896639043	0.668287071632248	-0.47886989513093736	0.42320231411776515	0.6271013590447535	-0.5636799743200506	0.37093171595203167	0.6480756108603098	-0.585601735643346	0.3830445956378412	0.6207034154193702	-0.5860953856193503	0.4074884304772093	0.6363193424139764
25	0.423728813559322	0.3045759564184611	0.30799114361506585	1.19391943063521	0.3104241581587241	0.28780926326344314	1.5960351031070594	0.281791730669353	0.3132748808893374	2.0074354475817016	0.25915797773349336	0.10558613020365629	2.0049402465383075	0.3358898885473818	0.17584092434981802	2.0476780863770028	0.261485019391509	0.3513158587795165	2.0873692886990587	0.09136087498229223	0.3430576638944337	1.2126376025597534	0.10343218139111961	0.3150998168071324	1.5919810269877315	0.13355006022825358	0.33635906022345374	2.0406386339270717	0.11600642301520019	0.09724567480414234	2.0185000659652323	0.058131332613472995	0.16693437236779282	2.021255416455216	0.14510243541405812	0.3641231323449332	2.102556406267238	0.19478423189230182	0.3815291509350036	0.6002507082185219	0.20793285736009884	0.39388741468550753	0.3620803921754003	0.19752158861660088	0.3105140317151321	0.48765351072920304	0.3681352638211989	0.3807452819653525	0.6699435579810814	0.6225734903761034	0.33938295512869604	0.6520807863837005	0.8566164946806167	0.29336078697801593	0.6098523135486618	0.9757675341245986	0.2039144289180305	0.6216741601654225	1.0184518531496363	0.2312206438603735	0.6333316553237115	0.9945433820204476	0.29587487473156737	0.6616605680088091	0.03175842582166195	0.39515074366898567	0.6695036404651641	-0.21979567574146155	0.4102809955382164	0.6611989126773115	-0.47963209570342025	0.41129030205507594	0.6239708216314	-0.5630590980029564	0.3701262059728634	0.646538171886857	-0.5856080381481117	0.3828780361804827	0.6204223111236139	-0.585204788404834	0.3953101517789979	0.6260224116979498
26	0.4406779661016949	0.3041407944716805	0.3078614140386889	1.1975113907080945	0.3104509882457836	0.2878578939659807	1.5960273576667392	0.2861504104283488	0.3221271763209843	2.0185876589969403	0.259221914209483	0.10566816697794917	2.0036593790324595	0.33485070286283314	0.17507279328763992	2.0420266059135472	0.2655425701530255	0.33696372774782746	2.07512276360365	0.09803864500760016	0.3561421022632869	1.221801164829521	0.10349252305448374	0.3152454823370306	1.5918341345312153	0.1336284709609865	0.3367080628829293	2.0413056281767226	0.11559529984248954	0.09734029869331347	2.019198342077157	0.05806746041212578	0.16703419100353437	2.0215361946553574	0.1462733070073203	0.3642012937253747	2.0982782326627065	0.1947446461611904	0.38151925047558555	0.6004038599499896	0.20780173180796374	0.3936287850148554	0.3618372310761992	0.197518132358003	0.3105075411487332	0.4876544678782106	0.36814853390964003	0.38075296156885086	0.6699124966498899	0.6313130512634807	0.3500733790440347	0.6542487627627077	0.8567049820155658	0.29344049981613524	0.6094583921448806	0.9896659474836349	0.22113346760634317	0.6258607204511933	1.018826396725706	0.2324451169463378	0.6341174974969351	0.9944386853040184	0.2959900750556822	0.661584957791799	0.03178639371435927	0.39505853389307766	0.6692905030851415	-0.21989864176422572	0.4100523408147653	0.6612891083042642	-0.47976306837588867	0.4109189454595146	0.6241256848022418	-0.5632425964088339	0.36946938169060883	0.646284815848438	-0.5855364860239489	0.3720226690944144	0.6177680645874737	-0.5851167824259479	0.3955744998707752	0.6231470816589415
27	0.4576271186440678	0.30410428532075695	0.3077073386907399	1.1974866709021217	0.31039635844279867	0.287664883189461	1.5959399167297788	0.28167806526294903	0.31309471584416443	2.007373712781946	0.25720006730429384	0.1060097937359269	1.993832944384297	0.334391187678514	0.1745209242368408	2.0403520147876497	0.265462314552613	0.33706737592814073	2.075967564707183	0.09953731174815385	0.3322272087574262	1.211113203488886	0.10338712269563632	0.31504133398299555	1.5919270849449991	0.13363223752921158	0.33642683741359686	2.040786788270859	0.11546001669318776	0.09660963692795758	2.017861731675941	0.05805176801849368	0.16697887536639416	2.0213071282488353	0.14503125297486422	0.3639128345413021	2.102847076678562	0.19475828460663056	0.38161497587358667	0.6003593925622114	0.2110481838216542	0.40353648847274787	0.36331655788570627	0.19754315983981216	0.31058946821587124	0.48767553742174746	0.3680957628286146	0.3806992915830303	0.6698098882702382	0.6314396305380154	0.3505108684517831	0.6544712305571845	0.8566575167750458	0.29335435069755705	0.6092354373109163	0.9792878455337928	0.21249093531371513	0.6173277136007411	1.018067683798116	0.23200748017183334	0.6336170945211155	0.9946956194442558	0.29490541312807	0.6641786158372448	0.03178906313952147	0.39500087574799314	0.6691590868359889	-0.22341295645459527	0.40784159337177533	0.6572552209172345	-0.4797057981857907	0.41061960700367683	0.6240776571019006	-0.5628519578888684	0.3686096772794914	0.6456015281381753	-0.5852192561365036	0.3610337980905459	0.6147906212790205	-0.5816907269814057	0.39924860037459975	0.6236431455751815
28	0.4745762711864407	0.30406739057776194	0.3077617938678223	1.1974627189099918	0.31039925433710225	0.287785605008012	1.5960006745342123	0.28166262695831545	0.31307633901764553	2.007113205199071	0.257906175373051	0.10423685094948264	1.9989459803264298	0.33458855728664266	0.1746303364639249	2.0417524755319474	0.265359752478771	0.33687122435022687	2.075299174161262	0.09510766224658265	0.3445488886017685	1.2169475631168765	0.10343738666630978	0.31514268476779084	1.5917427777208235	0.13355930635688368	0.3364889964918481	2.040965720547751	0.11552266617655449	0.0962391648993833	2.01734315727313	0.05534330882625348	0.15616079089022164	2.012763480181599	0.14508802459538186	0.3639975305928342	2.10306298566684	0.19476766511918456	0.3816060856883481	0.6003686734383936	0.207783699046199	0.39379855937080704	0.36195602254350234	0.20127335954669284	0.29923974069182924	0.4853911737654518	0.36808363545276424	0.3806497348529859	0.6698742597317608	0.6313749738296515	0.3503987118699292	0.6543855450031407	0.8567695586112104	0.29342595995318405	0.6090509609704112	0.9798486674635949	0.21203464515493212	0.6210341234768315	1.0214090380981016	0.23144252504317264	0.6329903295455162	0.9941472121095462	0.2953940590037814	0.6610206442991847	0.03182845020221505	0.3950823034618637	0.669212398033602	-0.21993086467350909	0.4105968088169545	0.6575964623909087	-0.479563078499628	0.41108125822878633	0.6239273327137739	-0.5629160506371041	0.3687556169648428	0.6454482050264075	-0.5849795561594954	0.371119101420459	0.6137086368945859	-0.5816427210662697	0.39919455075481514	0.6236036251595637
